HIERARCHY
ROOT hip
{
  OFFSET 0 0 0
  CHANNELS 6 Xposition Yposition Zposition Zrotation Yrotation Xrotation
  JOINT abdomen
  {
    OFFSET 0 20.6881 -0.73152
    CHANNELS 3 Zrotation Xrotation Yrotation
    JOINT chest
    {
      OFFSET 0 11.7043 -0.48768
      CHANNELS 3 Zrotation Xrotation Yrotation
      JOINT neck
      {
        OFFSET 0 22.1894 -2.19456
        CHANNELS 3 Zrotation Xrotation Yrotation
        JOINT head
        {
          OFFSET -0.24384 7.07133 1.2192
          CHANNELS 3 Zrotation Xrotation Yrotation
          JOINT leftEye
          {
            OFFSET 4.14528 8.04674 8.04672
            CHANNELS 3 Zrotation Xrotation Yrotation
            End Site
            {
              OFFSET 1 0 0
            }
          }
          JOINT rightEye
          {
            OFFSET -3.6576 8.04674 8.04672
            CHANNELS 3 Zrotation Xrotation Yrotation
            End Site
            {
              OFFSET 1 0 0
            }
          }
        }
      }
      JOINT rCollar
      {
        OFFSET -2.68224 19.2634 -4.8768
        CHANNELS 3 Zrotation Xrotation Yrotation
        JOINT rShldr
        {
          OFFSET -8.77824 -1.95073 1.46304
          CHANNELS 3 Zrotation Xrotation Yrotation
          JOINT rForeArm
          {
            OFFSET -28.1742 -1.7115 0.48768
            CHANNELS 3 Zrotation Xrotation Yrotation
            JOINT rHand
            {
              OFFSET -22.5879 0.773209 7.07136
              CHANNELS 3 Zrotation Xrotation Yrotation
              JOINT rThumb1
              {
                OFFSET -1.2192 -0.487915 3.41376
                CHANNELS 3 Zrotation Xrotation Yrotation
                JOINT rThumb2
                {
                  OFFSET -3.37035 -0.52449 3.41376
                  CHANNELS 3 Zrotation Xrotation Yrotation
                  End Site
                  {
                    OFFSET -1.78271 -1.18214 1.43049
                  }
                }
              }
              JOINT rIndex1
              {
                OFFSET -7.75947 0.938293 5.60832
                CHANNELS 3 Zrotation Xrotation Yrotation
                JOINT rIndex2
                {
                  OFFSET -2.54057 -0.884171 1.56538
                  CHANNELS 3 Zrotation Xrotation Yrotation
                  End Site
                  {
                    OFFSET -1.62519 -0.234802 1.16502
                  }
                }
              }
              JOINT rMid1
              {
                OFFSET -8.24714 1.18213 3.41376
                CHANNELS 3 Zrotation Xrotation Yrotation
                JOINT rMid2
                {
                  OFFSET -3.10165 -0.590103 1.0647
                  CHANNELS 3 Zrotation Xrotation Yrotation
                  End Site
                  {
                    OFFSET -2.48547 -0.328903 0.83742
                  }
                }
              }
              JOINT rRing1
              {
                OFFSET -8.82822 0.546677 1.51678
                CHANNELS 3 Zrotation Xrotation Yrotation
                JOINT rRing2
                {
                  OFFSET -2.60934 -0.819778 -0.0198488
                  CHANNELS 3 Zrotation Xrotation Yrotation
                  End Site
                  {
                    OFFSET -2.33842 -0.294052 0.168128
                  }
                }
              }
              JOINT rPinky1
              {
                OFFSET -8.27202 -0.0477905 -0.4584
                CHANNELS 3 Zrotation Xrotation Yrotation
                JOINT rPinky2
                {
                  OFFSET -1.82734 -0.647385 -0.700984
                  CHANNELS 3 Zrotation Xrotation Yrotation
                  End Site
                  {
                    OFFSET -1.69225 -0.51767 -0.607171
                  }
                }
              }
            }
          }
        }
      }
      JOINT lCollar
      {
        OFFSET 2.68224 19.2634 -4.8768
        CHANNELS 3 Zrotation Xrotation Yrotation
        JOINT lShldr
        {
          OFFSET 8.77824 -1.95073 1.46304
          CHANNELS 3 Zrotation Xrotation Yrotation
          JOINT lForeArm
          {
            OFFSET 28.1742 -1.7115 0.48768
            CHANNELS 3 Zrotation Xrotation Yrotation
            JOINT lHand
            {
              OFFSET 22.5879 0.773209 7.07136
              CHANNELS 3 Zrotation Xrotation Yrotation
              JOINT lThumb1
              {
                OFFSET 1.2192 -0.487915 3.41376
                CHANNELS 3 Zrotation Xrotation Yrotation
                JOINT lThumb2
                {
                  OFFSET 3.37035 -0.52449 3.41376
                  CHANNELS 3 Zrotation Xrotation Yrotation
                  End Site
                  {
                    OFFSET 1.78271 -1.18214 1.43049
                  }
                }
              }
              JOINT lIndex1
              {
                OFFSET 7.75947 0.938293 5.60832
                CHANNELS 3 Zrotation Xrotation Yrotation
                JOINT lIndex2
                {
                  OFFSET 2.54057 -0.884171 1.56538
                  CHANNELS 3 Zrotation Xrotation Yrotation
                  End Site
                  {
                    OFFSET 1.62519 -0.234802 1.16502
                  }
                }
              }
              JOINT lMid1
              {
                OFFSET 8.24714 1.18213 3.41376
                CHANNELS 3 Zrotation Xrotation Yrotation
                JOINT lMid2
                {
                  OFFSET 3.10165 -0.590103 1.0647
                  CHANNELS 3 Zrotation Xrotation Yrotation
                  End Site
                  {
                    OFFSET 2.48547 -0.328903 0.83742
                  }
                }
              }
              JOINT lRing1
              {
                OFFSET 8.82822 0.546677 1.51678
                CHANNELS 3 Zrotation Xrotation Yrotation
                JOINT lRing2
                {
                  OFFSET 2.60934 -0.819778 -0.0198488
                  CHANNELS 3 Zrotation Xrotation Yrotation
                  End Site
                  {
                    OFFSET 2.33842 -0.294052 0.168128
                  }
                }
              }
              JOINT lPinky1
              {
                OFFSET 8.27202 -0.0477905 -0.4584
                CHANNELS 3 Zrotation Xrotation Yrotation
                JOINT lPinky2
                {
                  OFFSET 1.82734 -0.647385 -0.700984
                  CHANNELS 3 Zrotation Xrotation Yrotation
                  End Site
                  {
                    OFFSET 1.69225 -0.51767 -0.607171
                  }
                }
              }
            }
          }
        }
      }
    }
  }
  JOINT rButtock
  {
    OFFSET -8.77824 4.35084 1.2192
    CHANNELS 3 Zrotation Xrotation Yrotation
    JOINT rThigh
    {
      OFFSET 0 -1.70687 -2.19456
      CHANNELS 3 Zrotation Xrotation Yrotation
      JOINT rShin
      {
        OFFSET 0 -36.8199 0.73152
        CHANNELS 3 Zrotation Xrotation Yrotation
        JOINT rFoot
        {
          OFFSET 0.73152 -45.1104 -5.12064
          CHANNELS 3 Zrotation Xrotation Yrotation
          End Site
          {
            OFFSET -1.1221 -3.69964 12.103
          }
        }
      }
    }
  }
  JOINT lButtock
  {
    OFFSET 8.77824 4.35084 1.2192
    CHANNELS 3 Zrotation Xrotation Yrotation
    JOINT lThigh
    {
      OFFSET 0 -1.70687 -2.19456
      CHANNELS 3 Zrotation Xrotation Yrotation
      JOINT lShin
      {
        OFFSET 0 -36.8199 0.73152
        CHANNELS 3 Zrotation Xrotation Yrotation
        JOINT lFoot
        {
          OFFSET -0.73152 -45.1104 -5.12064
          CHANNELS 3 Zrotation Xrotation Yrotation
          End Site
          {
            OFFSET 1.1221 -3.69964 12.103
          }
        }
      }
    }
  }
}
MOTION
Frames:	4
Frame Time:	0.03333
62.10121689364314 66.78262948989868 -166.8825564906001 -186.30230251839714 23.29384448504615 -187.11803201097177 -3.822640873723635 13.772393442413712 0.2406466676448841 3.6617271664068354 -11.121461275522009 0.8105950579486244 -5.094234266977834 17.98009391455963 -12.328046635803318 9.289760780701853 -25.801685042599733 -18.513290924569386 -2.00093870863132 -1.0140839490439053 0.4158500912007026 -0.014190998661170868 1.5035941086269047 1.4524767594351176 -0.6485049039081429 -0.8711982058762369 0.65065001019435 50.7284535883721 -3.0212477347734574 32.24668569436962 -25.92146094743237 -25.0015830228461 61.99190339768127 -0.7589062673832306 27.574354773744407 3.611143212300544 -1.47627900819726 0.7628753543429485 -0.38454381241824337 -0.13738370562610586 0.1033661619082689 2.0712038528310033 1.061877984317658 -2.3307252146386888 0.212270459975081 7.202019545786368 6.483843937579745 0.08125096987111965 -0.041408342008319644 0.43242802753338133 -1.7615414319960194 3.4657568728447106 0.4883055916898441 0.6876463168031058 0.39830552301790834 -0.9708566422822467 -0.9094737322113421 10.79113112914539 0.853859984111571 -0.1076006390698388 -1.24804631609058 0.10069587810791127 0.6244654127940483 1.2921221671349068 -2.306837695233627 0.48447545639105366 -1.3463220660764852 -0.3457929476055876 -0.8522370671317526 -71.52964102638961 74.70419000920647 -6.843762890327682 26.43624547498706 -41.60038387589196 -87.50628677812817 48.74611071008637 -73.75965680926375 53.524254921333416 0.7367347262854288 -1.114451551184833 -1.322490895732076 -0.3069480609701383 -1.40585516882108 1.9587928129143448 2.2058102327858524 0.025915125093203536 -0.8492188172096945 -6.96323869372366 7.101832623493328 -1.7800101567900282 0.676554196312711 -0.9607629033494371 -1.1518190892471496 -3.2657501509265194 0.7692268966625315 0.3604176099182014 0.8911329667425654 -0.46569734537198454 0.11459440593438808 -10.840713179877804 -1.5554391931304155 -0.2439356171736568 -0.09528241958214725 0.5012329519937098 -0.9723572561872397 -3.759172194634938 0.6522921370812091 1.1226886526021624 -0.28474332942183844 1.1288162927830159 0.7531523666160238 -57.96531563666199 -47.82419226648556 -52.56011566337817 -5.6167684979195505 67.90158114306223 4.61577268542927 0.4913272033456343 -2.445621376196174 12.16462838349524 -0.8973075644739626 1.380058931708117 0.48787304861631187 23.222598781813748 -34.57353306910703 30.406588335738576 2.282214436388908 80.37222249194156 -4.8380296023424245 18.933858115165627 -24.683344018847695 29.933669452701476
62.85576894879341 66.89471006393433 -170.69653365761042 -184.81004278853274 21.880377817447034 -186.17050718817256 -3.7019236834460068 14.29978308408166 0.26605838645191654 3.570037853214938 -11.201900413377249 0.7717342697790137 -4.904118085864645 17.77289671099271 -11.894015434805688 9.021901252021463 -25.802455146428652 -18.232124479838518 -1.8964039440447444 -0.7387363985990657 0.3786673951327994 0.08989638853476907 1.4705402619122743 1.3294532063738462 -0.7859658760492345 -0.9396665834373834 0.6053816508096211 50.0994204865706 -2.191466835528826 32.70688335007756 -25.884494256096968 -24.938373037172216 62.31531285488138 -0.7986167737742732 26.885101601578203 3.444655003403956 -1.3278754326755733 0.7636689369471394 -0.25111393254792863 -0.18245228197761187 0.09234479790880708 2.4212604393042656 1.1099992283413367 -2.1874466288720384 0.2537040950276709 7.368507114352721 6.316597364241874 0.08981495987325783 0.07296829828542138 0.6163428237670222 -1.9090188765549347 3.5197768389903414 0.6448757255813389 0.7543908186507646 0.554545673395127 -0.9488425157004724 -0.9133863633887016 10.53842266759138 1.1405443679181626 -0.3457232316512858 -1.27918813672443 -0.11752866587399613 0.6908358550629431 1.2807721002816381 -2.2374946265718956 0.5022019317213524 -1.2095082543592524 -0.5287841741973958 -1.0238788672005268 -70.08761733787067 74.08171388900818 -8.53322170747456 26.366212130332336 -41.33367181899213 -87.64330037287863 46.54721326907081 -72.58798566847226 51.59586712239621 0.8749053977699671 -1.1279770332887507 -1.3808322371882094 -0.06949013117229817 -1.4923872623027947 2.1044448894175742 2.2160503938989944 0.10067965640863248 -0.8796413335465776 -6.953975249661831 6.801901941565143 -1.7206370298823999 0.6636673368961894 -0.8791873927710362 -1.1853834926022384 -3.3279185327519754 0.7165872690594779 0.3340240514179796 0.7121444444477962 -0.398922427838178 0.1243391648892922 -10.856104157398782 -1.5801311807536578 -0.5145058771808957 -0.06096498787106444 0.5880608780438505 -0.9268220925380571 -3.490222183564873 0.7159845048652242 1.2789561237360612 -0.38980380513109364 1.0972181301352444 0.7239165956474305 -57.18995939227131 -48.20737270911245 -51.775081040933586 -5.931974471039646 67.9494880899007 5.3019129988812415 0.41147290043807644 -2.514219740794962 11.385227813342269 -0.8984819301243817 1.4001870723053214 0.7173750886915565 22.877564945701383 -34.74001893012609 30.056196216222336 3.1206058562993984 80.52129137057709 -5.320753221933075 18.773054971536016 -24.32925676699048 29.43699858682566
63.96274967119098 66.79431200027466 -174.34051912277937 -185.4325735502444 22.287503195756692 -186.8302624808608 -3.5995267680696448 14.656329204040082 0.44794376272841735 3.7392711578276363 -11.345331824626578 0.6912865941873111 -4.803987085745435 17.970128668560584 -11.715943011633348 8.9401233970889 -25.873012708102177 -18.523495227189382 -1.6747954682159187 -0.5972535122538943 0.5096892064338615 0.10203961110540549 1.4375931369034252 1.2014222708773092 -0.7291527894198916 -0.8655073776371469 0.5181746492605446 49.66307385144434 -2.348988073262245 33.52896833367488 -26.09529950709295 -25.297319968623896 63.01803686763814 -0.7835468151442864 27.002304232641038 3.660212998845208 -1.2775200764630659 0.9772673084268325 -0.06237275389202754 -0.04782839966301429 0.18097439979595034 2.7660872353074137 1.0735238837393528 -2.1718981301133278 0.22736773936174795 7.5250909086225555 6.16279431073788 0.13559899854032267 0.05508942435926675 0.851369633107161 -1.7856460233506408 3.675387971633684 0.8577658918214663 1.0060873983514071 0.5626804286966121 -0.8585405846837338 -0.8237249760500632 10.402943304083239 1.229827746974923 -0.4716864607787337 -1.0874724106849882 -0.14427824798470482 0.7075375885743284 1.0726523942899415 -2.1505249740964767 0.3905396512924567 -1.1348120249355236 -0.6869675133934829 -1.0195160838681812 -70.18012541998931 74.1430284971874 -8.00242721650536 26.677953916882764 -41.62614734944125 -88.60209500780834 46.184356054319295 -73.27197447233567 51.72057954645147 1.0459642838817629 -1.0383487296789045 -1.5426385648521652 0.15801834743894905 -1.3856612876531142 2.016618048201319 1.9969618309870802 0.09312162520519025 -1.0196926015695436 -6.894204691121872 6.478818625897907 -1.7392070335751952 0.6677611815299658 -0.863573580328387 -1.1517435302794563 -3.5069651116546896 0.6993484052028947 0.1647420817074448 0.46907039160491304 -0.5080714120959205 0.13808897601876255 -10.779021203746957 -1.6682611116143322 -0.6527745191913413 -0.1364411395206441 0.7149931135793676 -0.8783102470712184 -3.3720163684676936 0.6032291807257151 1.4449122182076228 -0.5592105858765398 0.948613704363277 0.7111731702034793 -58.00267677142196 -48.738768256728605 -52.77928618856013 -6.356108301043105 68.6424995736577 5.664527741917219 0.4305632791682621 -2.4334282078672316 11.57033106249149 -0.7843089682061246 1.356949840425025 0.8299092854566866 23.199606657520192 -34.99532115601741 30.164669865525894 4.241433068909321 80.82160795819337 -6.378520713030856 18.81392682352937 -24.521729790254145 29.34217165548379
65.22810822352767 66.38586521148682 -177.84878108650446 -186.97813607639156 23.810719050486867 -188.1076171386799 -3.607271775701616 14.654893156767086 0.5994954151272452 4.074418295116407 -11.332970889776147 0.6107343313239426 -4.851014645728265 18.350368714749777 -11.93297739515238 9.032858582997456 -25.875936029066942 -19.2518768455633 -1.4581294880252438 -0.598892971098109 0.634736309758455 -0.008079260014478833 1.4508180906838624 1.1173233255657058 -0.6255891923559269 -0.7083011823791946 0.5360343132796586 49.47419863032598 -3.373677811983299 34.044787634888834 -26.193169287710063 -25.60671046255255 63.20751314540346 -0.6337522289094443 27.916607015317283 4.208263962752446 -1.3361461514302242 1.1878787528051145 0.09039125708447765 0.11415679357983124 0.299063888233828 2.9144816327624032 0.9928947812478217 -2.2531167633075957 0.15201794621181353 7.555238509845346 6.180927609210618 0.22336436805404777 -0.13998910262934838 1.0071773471325531 -1.5708997532035622 3.732940853127504 0.9759375559727956 1.2156286374641128 0.441985009646963 -0.7645337029290865 -0.6966606190427889 10.351272923012091 1.1475472328081298 -0.42717409127733413 -0.954848493136735 -0.044682990828517635 0.5968202221284217 0.8066067077210131 -2.08082332050332 0.24866082741883624 -1.1167282453342686 -0.785296624232279 -0.9198345955737225 -71.63410876974496 74.8337177166266 -5.241727506349205 26.96062129568374 -42.00263420668152 -89.38054532789303 47.458521013796 -75.02106980556005 53.39011000603437 1.1144595553127665 -0.9083864514728407 -1.672417281724285 0.17536361283619645 -1.1463464001746768 1.8116829179101408 1.7624310641354137 0.012607355269079943 -1.1622787769090837 -6.888621865249033 6.29213333418218 -1.8324385821373403 0.7315261200739123 -0.8278556396723342 -1.0319825664856295 -3.7038839477378 0.6705428294303063 0.07423781300665122 0.3903819166113118 -0.7168374247378296 0.12289671431395013 -10.629625329804915 -1.7319274393021367 -0.7163315638524256 -0.1953468253569497 0.7639800840803452 -0.8162340727995575 -3.346374130776173 0.4574883117632755 1.4124515307337255 -0.6902862916390216 0.8031246986264816 0.7133127269609857 -59.32586199857185 -48.96527782017374 -54.34146656495793 -6.119606170842244 69.08937836048413 5.077026459137633 0.5932396021777483 -2.2273244748977463 12.477906962608921 -0.636209549545915 1.2948365269997524 0.8282905306233936 23.27633188001424 -34.885334619812696 30.095992313421416 4.440874592673693 80.69335749614804 -6.7803048834095625 19.02701506525543 -24.979683728819747 29.696880454555476
